<?xml version="1.0" encoding="UTF-8"?>
<svg id="Capa_1" data-name="Capa 1" xmlns="http://www.w3.org/2000/svg" viewBox="0 0 352.17 291.13">
  <defs>
    <style>
      .cls-1 {
        fill: #193154;
      }
    </style>
  </defs>
  <path class="cls-1" d="M218.55,268.72h-2.14c-4.55-7.65-8.42-15.85-12.38-23.87-7.95-16.07-15.75-32.22-23.63-48.33-1.26-1.56-7.37-1.57-8.63,0-7.71,15.83-15.39,31.68-23.2,47.47-4.11,8.3-8.12,16.79-12.81,24.73h-2.14c-.49-.76-1.11-1.29-1.51-2.14-3.33-7.14-5.45-17.05-8.35-24.68-.21-.56-1.06-3.11-1.5-3.15l-27.57,9.28c-3.44.68-4.13-1.02-3.21-4.07l34.37-69.4c-7.92-4.96-16.98-8.2-24.41-13.83-2.47-3.52-2.91-6.26-1.93-10.4,1.88-7.89,5.35-15.96,7.39-23.87-1.28-8.29-7.06-18.64-7.92-26.64-.47-4.3,1.58-7.83,5.08-10.15,7.02-4.65,16-7.8,23.14-12.46,4.54-7.13,7.69-15.93,12.25-22.92,2.44-3.74,6.04-5.67,10.58-5.07,8.18,1.08,17.87,6.53,26.28,7.64,8.06-1.67,16.18-5.5,24.15-7.2,4.55-.97,8.31-.47,11.42,3.35,5.13,6.3,8.29,17.65,13.33,24.42,6.83,4.72,17.98,8.05,24.21,13.11,4.53,3.68,4.13,8,2.83,13.04-1.96,7.59-5.01,14.98-6.95,22.59,1.86,8.13,5.68,16.45,7.47,24.51,1.15,5.16-.11,8.96-4.46,12.01l-21.96,11.87,34.37,69.4c.93,3.05.23,4.75-3.21,4.07l-27.57-9.28c-.44.04-1.28,2.59-1.5,3.15-2.94,7.73-5.03,17.35-8.35,24.68-.39.86-1.02,1.38-1.51,2.14ZM234.2,126.23c0-32.09-26.02-58.11-58.11-58.11s-58.11,26.02-58.11,58.11,26.02,58.11,58.11,58.11,58.11-26.02,58.11-58.11Z"/>
  <circle class="cls-1" cx="176.09" cy="126.23" r="40.09"/>
</svg>