<?xml version="1.0" encoding="UTF-8"?>
<svg id="Capa_1" data-name="Capa 1" xmlns="http://www.w3.org/2000/svg" viewBox="0 0 352.17 291.13">
  <defs>
    <style>
      .cls-1 {
        fill: #193154;
      }
    </style>
  </defs>
  <path class="cls-1" d="M296.39,93.58c.15,1.51.15,4.14,0,5.65-1.69,16.92-16.25,23.51-28.36,32.08-14.82,10.48-29.45,21.24-43.56,32.66-.21,1.03,6.35,5.59,7.55,6.48,13.38,9.94,25.36,18.03,38.04,29.21,5.1,4.5,10.14,9.16,15.04,13.88l-17.56,4.2-6.19,11.8c-6.34-12.67-11.98-25.94-22.8-35.52-6.02-5.33-13.21-9.53-20.22-13.4l9.95,16.15c8.11,12.57,10.83,26.81,12.62,41.47l-11.25-3.02-7.1,15.96-3.9-25.02c-2.25-15.42-9.28-29.18-19.42-40.82-8.98,7.52-17.73,15.46-26.29,23.49-7.42,6.95-14.79,14.1-22.1,21.17-9.61,9.31-20.51,22.52-30.56,30.58-12.82,10.29-31.58,7.69-43.71-2.36-19.83-16.44-27.7-49.81-14.08-72.4,6.98-11.59,15.2-14.33,25.74-21.29,24.9-16.45,51.73-37.35,74.15-57.06,19-16.71,37.5-34.79,50.62-56.62,17.94-1.34,34.57,6.45,47.98,17.74l13.01-12.13c.64.11,7.77,7.96,8.75,9.15,6.31,7.66,12.68,17.88,13.65,27.98ZM218.64,61.19c-.59.2-6.11,8.83-7.17,10.23-9.13,12.03-20.15,22.5-30.75,33.21.33.5.65.57,1.19.69,2.92.65,5.42.91,8.33,2.01,6.79,2.58,12.15,7.41,17.11,12.54.53.09,2.01-1.17,2.52-1.59,5.78-4.73,12.31-11.25,17.87-16.46,8.81-8.26,17.34-16.87,25.82-25.47.18-1.01-7.99-6.57-9.41-7.43-4.93-2.96-20.21-9.53-25.51-7.72ZM222.09,152.38c.74.22.8-.24,1.17-.47,10.44-6.42,22.13-16.95,32.54-24.37,7.82-5.58,22.91-13.63,27.62-21.3,7.37-11.99-1.39-25.71-9.12-35.03l-1.68.22-58.76,56.97c-.68,1.5,3.41,7.1,4.27,8.9,2.2,4.58,4.18,9.93,3.98,15.07ZM124.28,177.79c8.6-1.69,16.56-6.52,23.94-11.1,5.53-3.43,10.92-7.28,16.18-11.1,2.39-1.74,19.21-14.08,19.57-15.26.31-1.02-1.16-2.11-1.85-2.77-6.57-6.19-17.22-9.93-26.01-11.44-18.56,15.16-37.71,29.54-57.22,43.44,8.57,4.67,14.31,13.57,17.26,22.71,4.24,13.11,4.04,25.04-4.18,36.48-10.79,15.03-27.32,12.37-33.53-4.87-.82-2.28-2.92-8.58-1.46-10.38,9.13-7.79,18.36-15.48,26.87-23.95-5.06-9.89-12.27-16.04-22.99-8.85-29.81,20-11.32,80.12,23.37,76.07,25.55-2.98,23.88-49.72,21.85-67.86-.42-3.71-1.16-7.45-1.82-11.11ZM190.11,149.09c-.42-.32-1.84.9-2.3,1.22-14.11,10-26.2,20.78-41.58,29.44-1.48.83-9.6,4.49-9.96,5.09-.93,1.53.56,7.97.71,10.12.42,6.24.43,12.56.49,18.83l-1.9,17.15,61.37-57.41c-.41-8.43-3.57-16.69-6.84-24.44ZM107.82,200.37l-20.47,17.87c4.18,16.56,15.23,10.59,19.89-1.75,1.99-5.28,2.09-10.68.58-16.12Z"/>
</svg>