<?xml version="1.0" encoding="UTF-8"?>
<svg id="Capa_1" data-name="Capa 1" xmlns="http://www.w3.org/2000/svg" viewBox="0 0 352.17 291.13">
  <defs>
    <style>
      .cls-1 {
        fill: #193154;
      }
    </style>
  </defs>
  <path class="cls-1" d="M271.73,106.93c9.13,1.04,21.69-3.71,25.11,8.08l.2,68.74c-.18,3.79-3.85,8.51-7.6,9.31-3.08.65-16.69-.38-17.71.26-19.01,42.52-64.15,67.22-110.55,60.74-35.15-4.91-66.36-28.36-80.67-60.74-8.88-1.12-21.18,3.7-24.9-7.45-.74-23.62-.52-47.53-.11-71.18,3.59-11.43,16-6.69,25.01-7.76,2.71-6.22,6.11-12.12,10.05-17.64,33.43-46.91,98.44-58.3,145.9-25.08,15.31,10.72,27.65,25.64,35.27,42.72ZM171.47,55c-10.6,2.25-19.05,10.23-24.53,19.23,7.86,2.66,16.26,3.57,24.53,4.02v-23.25ZM180.77,55v23.25c8.27-.42,16.66-1.43,24.53-4.02-5.53-8.95-13.91-16.97-24.53-19.23ZM146.53,59.23c-.73-.6-15.54,6.42-17.21,7.5-.41.26-.76-.05-.54.94,1.82.34,7.42,3.97,8.87,3.2l8.88-11.65ZM223.47,66.85l-17.75-7.61,9.16,11.79c.83.25,7.03-2.57,8.06-3.24.41-.26.76.05.54-.94ZM91.15,107h31.5c1.32-2.52,1.75-5.6,2.64-8.36,2.09-6.54,4.49-13.06,7.72-19.12l-13.68-6.3c-11.65,8.96-22.08,20.28-28.18,33.77ZM261.1,107c-6.09-13.49-16.51-24.84-28.18-33.77l-12.58,5.91c-.43.21-.67.5-.68,1,0,.64,4.41,10,5.08,11.85,1.8,4.95,2.92,10.21,4.85,15.02h31.5ZM171.47,87.55c-10.18.06-20.09-2.51-29.96-4.6-3.39,7.75-7.18,15.64-8.51,24.05h38.47v-19.45ZM180.77,87.55v19.45h38.47c-1.33-8.41-5.12-16.29-8.51-24.05-9.88,2.02-19.78,4.72-29.96,4.6ZM272.94,139.55c.12-20.86-40.66-19.51-36.17,2.14,2.34,11.3,17.15,10.27,24.71,14.18,6.42,3.32,1.89,10.39-4.02,11.11-7.27.89-11.94-1.9-13.32-9.21l-9.26.8c.32,15.35,16.77,19.68,29.28,15.54,11.54-3.82,14.08-19.62,3.83-26.03-4.86-3.04-19.31-4.8-21.47-8.12s.57-5.6,3.66-6.45c5.87-1.61,11.86-.32,13.08,6.41l9.67-.37ZM87.13,125.6h-9.09v49.04h8.88v-31.71l20.08,31.71h9.51v-49.04h-8.88v32.13c-1.02.23-.69-.18-.94-.55-6.93-10.03-12.37-21.64-19.56-31.58ZM163.44,125.6h-36.36v48.41l.63.63h36.57v-8.46h-27.48v-13.11h24.52v-8.46h-24.52v-10.57h26l.63-.63v-7.82ZM177.6,125.6h-9.51l11.66,49.06,10.54-.44,9.72-35.95,9.72,35.95c.73.88,8.71.34,10.39.23l11.81-48.86h-9.72l-7.19,33.82-9.13-33.85-11.54.07c-3.11,10.67-5.34,21.65-8.49,32.31-.18.62.24.74-.85.62l-7.4-32.98ZM91.15,193.24c6.13,13.5,16.48,24.83,28.18,33.77l12.58-5.91c.43-.21.67-.5.68-1,0-.64-4.41-10-5.08-11.85-1.8-4.95-2.92-10.21-4.85-15.02h-31.5ZM171.47,193.24h-38.47c1.34,8.38,5.16,16.28,8.52,24.03.85.54,5.31-1.2,6.61-1.5,7.63-1.76,15.5-2.98,23.34-3.08v-19.45ZM219.24,193.24h-38.47v19.45c10.18-.09,20.09,2.53,29.96,4.6,3.39-7.75,7.18-15.64,8.51-24.05ZM261.1,193.24h-31.5c-1.9,4.94-3.12,10.27-4.97,15.32-1.51,4.14-3.29,8.32-5.39,12.15l13.74,6.23c11.61-8.94,22.04-20.22,28.11-33.7ZM171.47,221.99c-8.29.46-16.57,1.65-24.52,4.02,5.42,9.05,13.98,16.93,24.52,19.23v-23.25ZM180.77,221.99v23.25c10.62-2.19,19.04-10.3,24.53-19.23-7.92-2.53-16.26-3.39-24.53-4.02ZM146.53,241.01l-9.16-11.8-8.6,3.35c-.22.99.14.68.54.94,1.66,1.08,16.48,8.1,17.21,7.5ZM223.47,232.57l-8.58-3.34-9.17,11.78c.73.6,15.57-6.45,17.21-7.5.41-.27.76.04.54-.94Z"/>
</svg>