<?xml version="1.0" encoding="UTF-8"?>
<svg id="Capa_1" data-name="Capa 1" xmlns="http://www.w3.org/2000/svg" viewBox="0 0 352.17 291.13">
  <defs>
    <style>
      .cls-1 {
        fill: #193154;
      }
    </style>
  </defs>
  <path class="cls-1" d="M237.54,147.13c.25-2.38-.1-5.06-2.28-6.47l-64.59-31.18c-5.45-2.42-9.68,3.46-5.57,7.83l62.54,30.31c1.37.2,1.23,3.13.43,3.75l-60.29,26.31c-41.06-17.25-81.09-37.07-122.14-54.32-2.26-.95-4.74-.22-6.37-2.68-2.07-3.12.52-6.31,3.53-7.5,40.1-15.76,79.25-37.46,119.25-52.99,2.25-.88,4.5-2.25,7-1.95l124.3,54.94c2.06.95,4.73,2.91,4.32,5.5-.69,4.44-4.37,3.51-7.17,4.68-17.81,7.49-35.2,16.17-52.97,23.76Z"/>
  <path class="cls-1" d="M228.51,161.71v16.32c-1.78,1.53-4.18,1.65-6.28,2.75-11.15,5.84-15.6,19.02-10.29,30.48.96,2.07,4.22,5.62,3.56,7.18-1.54,3.66-8.11,3.83-11.74,4.29-28.14,3.58-100.47,3.39-122.5-15.53-1.67-1.43-5.55-5.53-5.55-7.65v-52.44l91.33,40.31,3.85-.36,57.62-25.37Z"/>
  <path class="cls-1" d="M239.67,213.18c-.83,1.16,11.98,22.14,11.75,25.9-.56,3.17-2.32,3.66-5.17,3.92-6.38.58-20.89.7-27.13-.02-3.98-.46-5.22-2.46-4.17-6.29,1.09-3.96,11.42-20.7,11.29-22.56-9.68-6.28-9.64-21.34,1.79-25.48,16.06-5.83,26.33,16.26,11.65,24.52Z"/>
  <path class="cls-1" d="M260.46,199.56c-.33,1.88-3.06,5.63-4.85,6.6,2.88-12.88-5.66-24.51-18.11-27.51l.67-21.52,22.29-10.01v52.44Z"/>
</svg>